<?xml version="1.0" encoding="UTF-8"?>
<svg id="b" data-name="Layer 2" xmlns="http://www.w3.org/2000/svg" xmlns:xlink="http://www.w3.org/1999/xlink" viewBox="0 0 2920.051 795.318">
  <defs>
    <clipPath id="e">
      <rect width="2920.051" height="795.318" fill="none"/>
    </clipPath>
  </defs>
  <g id="c" data-name="b">
    <g id="d" data-name="c">
      <g clip-path="url(#e)">
        <g>
          <path d="M723.877,639.854V41.448h111.217v499.64h280.529v98.766h-391.746Z" fill="#131318"/>
          <path d="M1162.76,639.85V209.098h104.577v430.753h-104.577ZM1158.613,146.85V37.294h113.704v109.556h-113.704Z" fill="#131318"/>
          <path d="M1534.09,646.488c-128.646,0-205.836-91.295-205.836-222.428s78.017-221.602,204.173-221.602c53.117,0,99.596,22.409,124.492,55.608v-48.968h104.573v585.956h-104.573v-205.833c-19.919,32.371-67.232,57.267-122.829,57.267h0ZM1549.031,556.023c68.879,0,114.524-52.287,114.524-131.963,0-78.847-45.646-131.136-114.524-131.136s-114.541,52.289-114.541,131.136,45.649,131.963,114.541,131.963Z" fill="#131318"/>
          <path d="M2239.108,209.099v430.752h-104.573v-66.395c-28.224,43.986-78.013,73.036-137.771,73.036-93.792,0-156.877-61.418-156.877-155.203V209.099h104.59v258.12c0,50.626,32.364,86.318,82.987,86.318,67.232,0,107.07-58.097,107.07-155.206v-189.231h104.574Z" fill="#131318"/>
          <path d="M2321.225,639.85V209.098h104.59v430.753h-104.59ZM2317.081,146.85V37.294h113.708v109.556h-113.708Z" fill="#131318"/>
          <path d="M2692.52,646.491c-128.636,0-205.833-91.298-205.833-222.432s78.03-221.602,204.169-221.602c53.12,0,99.599,22.409,124.51,55.608V34.804h104.573v605.046h-104.573v-50.626c-19.919,32.367-67.232,57.267-122.846,57.267h0ZM2707.465,556.023c68.892,0,114.541-52.287,114.541-131.963,0-78.847-45.649-131.136-114.541-131.136s-114.541,52.289-114.541,131.136,45.646,131.963,114.541,131.963Z" fill="#131318"/>
          <path d="M472.643,275.575L307.132,26.134c-23.121-34.845-74.288-34.845-97.409,0L44.211,275.575c-16.421,24.28-28.823,51.5-36.251,80.707-5.198,20.434-7.96,41.841-7.96,63.895,0,142.724,115.702,258.427,258.427,258.427s258.428-115.703,258.428-258.428c0-53.571-16.301-103.334-44.213-144.602h.001Z" fill="#131318"/>
        </g>
      </g>
    </g>
  </g>
</svg>

